<?xml version="1.0" encoding="utf-8"?>
<!-- Generator: Adobe Illustrator 27.5.0, SVG Export Plug-In . SVG Version: 6.00 Build 0)  -->
<svg version="1.1" xmlns="http://www.w3.org/2000/svg" xmlns:xlink="http://www.w3.org/1999/xlink" x="0px" y="0px"
	 viewBox="0 0 500 500" style="enable-background:new 0 0 500 500;" xml:space="preserve">
<g id="BACKGROUND">
	<rect style="fill:#E0ECFC;" width="500" height="500"/>
</g>
<g id="OBJECTS">
	
		<line style="fill:none;stroke:#332737;stroke-linecap:round;stroke-linejoin:round;stroke-miterlimit:10;" x1="20.934" y1="161.268" x2="483.083" y2="161.268"/>
	<ellipse style="fill:#D1E4FC;" cx="235.086" cy="464.549" rx="78.642" ry="15.033"/>
	<ellipse style="fill:#D1E4FC;" cx="405.151" cy="464.549" rx="61.45" ry="15.033"/>
	<g>
		<polygon style="fill:#D1E4FC;" points="52.737,324.91 340.537,197.858 476.261,259.331 182.35,423.154 		"/>
		<polygon style="fill:#FEC779;" points="59.559,304.122 347.359,177.07 483.083,238.543 189.172,402.366 		"/>
		<path style="fill:none;stroke:#FFFFFF;stroke-miterlimit:10;" d="M78.115,304.122c25.217,16.689,39.335,31.661,58.58,44.069
			c19.622,12.651,38.507,26.444,56.529,41.285c59.231-34.306,116.86-69.578,176.092-103.884
			c27.772-16.085,62.901-31.657,91.907-45.393c-35.463-16.629-80.077-35.56-113.934-55.252
			c-34.222,21.548-68.835,24.251-107.521,53.801c-10.012,7.648-24.088,7.559-35.612,12.651
			C160.07,270.874,113.354,286.394,78.115,304.122z"/>
	</g>
	<g>
		<path style="fill:#9F5B5D;" d="M411.295,195.509c0,0-6.06-2.456-7.073-4.358c-0.483-0.909-1.198-5.656-0.751-6.022
			c0.448-0.366,2.126,0.733,2.574,3.053h1.79c0,0-3.357-5.863-3.021-6.596c0.336-0.733,1.567,0,1.567,0s-1.119-2.687-0.224-2.809
			c0.895-0.122,2.35,1.954,2.35,1.954s0-1.221,0.783-1.343c0.783-0.122,1.455,1.71,1.455,1.71s0.112-1.344,0.895-1.221
			c0.783,0.122,6.986,5.778,7.545,11.275L411.295,195.509z"/>
		<path style="fill:#332737;" d="M388.985,200.366c0.561-2.485,10.12-26.935,10.106-30.659
			c-0.014-3.723-18.002-14.014-18.002-14.014s9.443-11.482,26.928-10.116c2.499,0.195,8.346,6.351,10.346,17.358
			c0.739,4.069-11.498,37.982-12.944,43.338c-1.417,5.249,2.06,11.249,0.422,12.671C403.452,221.02,384.963,218.177,388.985,200.366
			z"/>
		<path style="fill:#91966B;" d="M382.194,151.461c0,0,7.362-6.771,17.19-0.706s-0.292,18.952-0.292,18.952L382.194,151.461z"/>
		<path style="fill:#9F5B5D;" d="M384.014,209.829c0,0,4.151,0.771,12.05,11.894c2.311,3.254,22.65,8.534,22.65,8.534l-7.42-34.748
			l7.891-4.358c0,0,25.771,42.724,22.069,51.98c-3.702,9.256-55.668,0.611-55.668,0.611s-5.069,7.839-10.285,12.366
			c0,0-14.595-7.919-14.665-15.015C360.566,233.997,378.461,209.521,384.014,209.829z"/>
		<path style="fill:#9F5B5D;" d="M355.176,195.905c0,0-6.032-6.155-14.2-8.985c-3.771-1.307-15.093-18.76-15.093-18.76l42.685-3.113
			l1.253-8.927c0,0-56.689-11.179-64.012-4.415c-7.323,6.764,21.014,55.066,21.014,55.066s-0.69,7.518-1.839,14.063
			c0,0,12.447,10.281,19.1,7.812C350.737,226.176,357.448,200.982,355.176,195.905z"/>
		<path style="fill:#9F5B5D;" d="M359.705,198.421l20.369,7.7l4.262,9.453c0,0-20.894,15.645-34.945,11.43
			S344.447,202.999,359.705,198.421z"/>
		<path style="fill:#332737;" d="M330.167,298.651c-1.628,2.23-11.085-5.714-11.085-5.714l10.287-6.927
			C329.368,286.01,334.338,292.937,330.167,298.651z"/>
		<path style="fill:#9F5B5D;" d="M321.396,296.355c0,0,13.71-5.727,34.085-29.122L287.14,242.75
			C287.14,242.75,290.855,277.561,321.396,296.355z"/>
		<path style="fill:#91966B;" d="M285.837,242.75c0,0,18.059,24.981,26.014,29.043c7.955,4.062,18.316,19.259,18.316,26.857
			c0,0,16.618-17.549,24.217-24.478c7.598-6.929,20.918-18.066,20.918-18.066s-6.076-8.16-7.998-16.931
			c-3.295-15.033,16.711-29.347,16.711-29.347l-3.94-3.708c0,0-32.465,21.636-35.55,13.401
			c-4.335-11.571,18.331-19.911,18.331-19.911l-7.678-3.706c0,0-25.866,8.352-29.718,11.806c-3.852,3.454-3.194,18.975-3.194,18.975
			S304.6,240.199,285.837,242.75z"/>
		<path style="fill:none;stroke:#A3A878;stroke-linecap:round;stroke-linejoin:round;stroke-miterlimit:10;" d="M328.125,291.151
			c0,0,2.943-5.318,7.624-9.35c4.681-4.032,19.246-17.618,24.887-23.617c5.641-5.998,9.608-9.645,9.608-9.645"/>
		<path style="fill:none;stroke:#A3A878;stroke-linecap:round;stroke-linejoin:round;stroke-miterlimit:10;" d="M372.439,251.658
			c0,0-12.587,13.32-16.957,17.144c-4.37,3.824-21.183,17.821-25.897,26.251"/>
		<path style="fill:none;stroke:#332737;stroke-linecap:round;stroke-linejoin:round;stroke-miterlimit:10;" d="M293.97,249.974
			c8.922,9.076,22.474,12.673,30.797,22.301c4.997,5.782,7.615,13.189,10.126,20.406"/>
		<path style="fill:#332737;" d="M282.835,267.507c0,0-62.135-16.739-71.012-18.91c-8.876-2.171-89.102,58.735-89.102,58.735
			l17.753,17.753l68.02-40.934c0,0,40.433,24.965,72.306,22.576L282.835,267.507z"/>
		
			<line style="fill:none;stroke:#423247;stroke-linecap:round;stroke-linejoin:round;stroke-miterlimit:10;" x1="130.576" y1="301.432" x2="149.621" y2="319.58"/>
		<path style="fill:#332737;" d="M248.928,198.935c-23.105,9.061-72.469,60.519-72.469,60.519l15.412,22.348l50.579-41.679
			c0,0,15.701,55.123,27.906,63.999c12.205,8.876,51.04-7.767,51.04-7.767S267.79,191.538,248.928,198.935z"/>
		
			<line style="fill:none;stroke:#423247;stroke-linecap:round;stroke-linejoin:round;stroke-miterlimit:10;" x1="187.211" y1="249.974" x2="202.778" y2="272.814"/>
		<path style="fill:none;stroke:#FFFFFF;stroke-miterlimit:10;" d="M248.114,258.185c0,0,10.116,23.617,13.455,32.253
			c1.878,4.857,3.23,11.078,8.788,13.685"/>
		<path style="fill:#9F5B5D;" d="M176.459,259.454c0,0-16.415,13.127-26.24,16.164c-2.434,0.753-7.644,0.503-8.875,2.032
			s-0.379,5.448,4.687,4.614c5.066-0.833,21.339-1.232,23.541-0.177c3.855,1.848,11.061,5.922,14.143,3.62
			c3.082-2.302,3.496-10.664,3.496-10.664L176.459,259.454z"/>
		<path style="fill:#9F5B5D;" d="M122.722,307.331c0,0-24.102,9.959-34.338,8.962c-2.536-0.247-7.244-2.492-8.971-1.557
			c-1.727,0.934-2.455,4.877,2.539,6.068c4.994,1.19,20.156,7.113,21.779,8.938c2.841,3.194,7.912,9.738,11.644,8.807
			c3.732-0.932,7.347-8.483,7.347-8.483l13.986-8.748L122.722,307.331z"/>
		<polyline style="fill:none;stroke:#FFFFFF;stroke-miterlimit:10;" points="187.211,275.043 191.871,281.802 227.405,252.664 		"/>
		<line style="fill:none;stroke:#FFFFFF;stroke-miterlimit:10;" x1="208.495" y1="284.15" x2="215.984" y2="278.047"/>
		<polygon style="fill:#9F5B5D;" points="390.578,178.567 380.074,206.121 360.024,207.903 372.178,172.288 		"/>
		<path style="fill:#332737;" d="M362.854,199.611l4.596-13.47l11.704,3.994C379.155,190.135,374.256,203.503,362.854,199.611z"/>
		<path style="fill:#9F5B5D;" d="M357.829,171.469c-0.256,1.075-0.452,2.171-0.582,3.27c-0.319,2.662-0.262,5.342,0.234,7.811
			c1.033,5.145,3.978,9.38,9.372,10.665c9.048,2.156,19.956,2.016,23.757-13.936c2.175-9.129-3.401-18.279-12.455-20.436
			C369.107,156.687,360.536,160.109,357.829,171.469z"/>
		<path style="fill:#9F5B5D;" d="M385.491,183.668c-0.706,2.964,1.124,5.94,4.089,6.646c2.964,0.706,5.94-1.124,6.646-4.089
			c0.706-2.964-1.124-5.94-4.089-6.646C389.173,178.873,386.198,180.703,385.491,183.668z"/>
		<path style="fill:#332737;" d="M360.37,165.164c0,0,3.007-4.263,9.607-6.081c0,0,6.18,18.261,20.599,20.352
			c0,0,3.161-0.298,4.966,2.597c0,0,10.169-15.308-0.043-26.643c-3.752-4.164-19.483-7.696-24.057-3.264
			c0,0-3.347-3.241-7.215,0.596C362.396,154.537,359.499,159.195,360.37,165.164z"/>
		<path style="fill:#332737;" d="M361.958,172.182c-0.32,0.76-0.178,1.65,0.318,1.988c0.495,0.338,1.156-0.005,1.476-0.765
			c0.32-0.76,0.178-1.65-0.318-1.988C362.938,171.079,362.278,171.422,361.958,172.182z"/>
		<path style="fill:#332737;" d="M370.97,174.08c-0.32,0.76-0.178,1.65,0.318,1.988c0.495,0.338,1.156-0.005,1.476-0.765
			s0.178-1.65-0.318-1.988C371.95,172.977,371.29,173.319,370.97,174.08z"/>
		<path style="fill:none;stroke:#332737;stroke-linecap:round;stroke-linejoin:round;stroke-miterlimit:10;" d="M366.27,177.07
			c0,0-2.87,1.309-2.959,2.607c-0.079,1.15,2.822,1.242,2.822,1.242"/>
		<path style="fill:none;stroke:#332737;stroke-linecap:round;stroke-linejoin:round;stroke-miterlimit:10;" d="M370.244,187.554
			c-0.977,0.131-1.934-0.004-2.808-0.396"/>
		<path style="fill:none;stroke:#332737;stroke-linecap:round;stroke-linejoin:round;stroke-miterlimit:10;" d="M391.218,183.02
			c0,0,2.519,0.779,1.864,2.775c-0.655,1.996-3.459,0.73-3.459,0.73"/>
		<path style="fill:none;stroke:#332737;stroke-linecap:round;stroke-linejoin:round;stroke-miterlimit:10;" d="M385.586,243.741
			c0,0-2.96-0.3-4.657,0c-1.697,0.3-1.774,2.41-1.774,2.41"/>
		<path style="fill:none;stroke:#332737;stroke-linecap:round;stroke-linejoin:round;stroke-miterlimit:10;" d="M395.903,221.886
			c1.646,1.387,3.095,3.008,4.288,4.799"/>
		<path style="fill:none;stroke:#332737;stroke-linecap:round;stroke-linejoin:round;stroke-miterlimit:10;" d="M418.714,230.257
			c0,0,4.029,8.862,5.571,9.942"/>
		<path style="fill:none;stroke:#332737;stroke-linecap:round;stroke-linejoin:round;stroke-miterlimit:10;" d="M322.264,226.685
			c0,0,1.097,4.723,3.194,7.405"/>
		<path style="fill:none;stroke:#332737;stroke-linecap:round;stroke-linejoin:round;stroke-miterlimit:10;" d="M349.2,217.967
			c0,0-14.054,6.976-16.022,12.421c-2.374,6.568,5.934,9.535,5.934,9.535"/>
		<path style="fill:none;stroke:#332737;stroke-linecap:round;stroke-linejoin:round;stroke-miterlimit:10;" d="M340.976,186.92
			c0,0-3.446-0.774-5.226-1.973"/>
		
			<line style="fill:none;stroke:#332737;stroke-linecap:round;stroke-linejoin:round;stroke-miterlimit:10;" x1="325.883" y1="168.16" x2="321.396" y2="167.237"/>
	</g>
	<g>
		<g>
			<g>
				<polygon style="fill:#EBF3FF;" points="133.977,0.007 133.977,118.215 41.629,117.924 41.629,-0.033 				"/>
			</g>
			<g>
				<polygon style="fill:#EBF3FF;" points="458.371,0.007 458.371,117.924 366.011,118.215 366.011,0.007 				"/>
			</g>
			<g>
				<polygon style="fill:#EBF3FF;" points="359.187,0.007 359.187,118.215 140.8,117.924 140.8,0.007 				"/>
			</g>
		</g>
	</g>
	<g>
		<path style="fill:#91966B;" d="M37.735,194.705l-4.252,1.137c0.105-0.985,0.225-2.017,0.363-3.092l5.993-3.749l-5.55,0.581
			c0.266-1.753,0.578-3.584,0.945-5.472l5.657-3.539l-5.031,0.527c0.175-0.794,0.359-1.595,0.554-2.401
			c0.376-1.55,0.851-3.001,1.399-4.354c5.418-1.844,10.685-3.398,10.685-3.398l-8.694-0.552c5.286-8.497,14.146-10.416,20.008-1.271
			c0,0,14.102,0.649,12.798,13.75c-0.374,3.755-2.584,7.438-5.895,10.752l-1.182-9.018c0,0-1.478,6.612-3.176,12.725
			c-1.539,1.128-3.195,2.186-4.929,3.157l-1.164-6.122l-2.139,7.825c-1.453,0.687-2.94,1.312-4.441,1.868l-1.19-6.256l-2.002,7.324
			c-0.908,0.272-1.816,0.516-2.719,0.731l-0.136-4.396l-2.206,4.889c-3.047,0.555-5.992,0.75-8.657,0.508
			c0,0,0.003-3.197,0.437-8.219L37.735,194.705z"/>
		<path style="fill:none;stroke:#332737;stroke-linecap:round;stroke-linejoin:round;stroke-miterlimit:10;" d="M43.944,192.509
			c0,0,12.005-30.745,31.916-29.42c13.739,0.914,20.927,46.403,23.27,81.541"/>
		<path style="fill:#A3A878;" d="M63.055,165.39l-3.899,2.042c-0.114-0.984-0.223-2.017-0.324-3.096l5.025-4.972l-5.287,1.784
			c-0.125-1.768-0.222-3.624-0.278-5.546l4.743-4.694l-4.793,1.617c-0.003-0.814,0-1.634,0.014-2.464
			c0.027-1.595,0.172-3.114,0.41-4.555c4.882-2.988,9.68-5.659,9.68-5.659l-8.604,1.369c3.294-9.45,11.517-13.264,19.242-5.628
			c0,0,13.901-2.46,15.502,10.608c0.459,3.745-0.89,7.824-3.393,11.783l-3.13-8.539c0,0,0.008,6.775-0.308,13.112
			c-1.255,1.438-2.638,2.833-4.117,4.161l-2.479-5.718l-0.37,8.104c-1.267,0.989-2.581,1.925-3.923,2.796l-2.533-5.843l-0.347,7.585
			c-0.826,0.464-1.658,0.902-2.492,1.309l-1.097-4.26l-1.08,5.254c-2.851,1.21-5.682,2.046-8.335,2.394c0,0-0.698-3.12-1.377-8.115
			L63.055,165.39z"/>
		<path style="fill:none;stroke:#332737;stroke-linecap:round;stroke-linejoin:round;stroke-miterlimit:10;" d="M68.482,163.047
			c0,0,12.345-38.823,26.094-34.007c13.749,4.816,19.879,27.146,10.246,115.589"/>
		<path style="fill:#A3A878;" d="M151.174,191.495l5.249,1.404c-0.129-1.216-0.277-2.49-0.448-3.817l-7.398-4.628l6.851,0.717
			c-0.328-2.163-0.714-4.425-1.167-6.755l-6.984-4.369l6.21,0.65c-0.217-0.981-0.443-1.969-0.684-2.964
			c-0.465-1.914-1.051-3.704-1.727-5.375c-6.689-2.277-13.191-4.195-13.191-4.195l10.733-0.681
			c-6.525-10.49-17.462-12.858-24.699-1.569c0,0-17.408,0.801-15.799,16.974c0.461,4.635,3.19,9.182,7.277,13.273l1.459-11.132
			c0,0,1.825,8.162,3.921,15.709c1.9,1.392,3.945,2.698,6.085,3.897l1.437-7.558l2.64,9.66c1.794,0.849,3.63,1.62,5.482,2.305
			l1.469-7.723l2.471,9.041c1.121,0.336,2.241,0.637,3.356,0.902l0.168-5.427l2.723,6.035c3.761,0.685,7.397,0.926,10.687,0.627
			c0,0-0.004-3.947-0.539-10.146L151.174,191.495z"/>
		<path style="fill:none;stroke:#332737;stroke-linecap:round;stroke-linejoin:round;stroke-miterlimit:10;" d="M143.51,188.783
			c0,0-19.591-44.711-39.4-36.318c-13.015,5.514-0.601,51.373-2.79,92.164"/>
		<g>
			
				<rect x="79.115" y="219.992" transform="matrix(-1 -1.224647e-16 1.224647e-16 -1 204.3599 491.1089)" style="fill:#FFFFFF;" width="46.13" height="51.124"/>
			
				<line style="fill:none;stroke:#332737;stroke-linecap:round;stroke-linejoin:round;stroke-miterlimit:10;" x1="125.245" y1="229.463" x2="79.115" y2="229.463"/>
		</g>
	</g>
	<g>
		
			<line style="fill:none;stroke:#332737;stroke-linecap:round;stroke-linejoin:round;stroke-miterlimit:10;" x1="182.208" y1="380.85" x2="289.88" y2="464.001"/>
		
			<line style="fill:none;stroke:#332737;stroke-linecap:round;stroke-linejoin:round;stroke-miterlimit:10;" x1="287.964" y1="380.85" x2="180.292" y2="464.001"/>
		
			<line style="fill:none;stroke:#332737;stroke-linecap:round;stroke-linejoin:round;stroke-miterlimit:10;" x1="235.086" y1="421.685" x2="212.906" y2="464.001"/>
		<ellipse style="fill:#9B5458;" cx="235.086" cy="384.879" rx="58.627" ry="18.991"/>
		<path style="fill:none;stroke:#332737;stroke-linecap:round;stroke-linejoin:round;stroke-miterlimit:10;" d="M188.289,389.669
			c0,0,19.634,8.926,51.546,8.926s51.229-8.995,53.307-16.365"/>
	</g>
	<g>
		<polygon style="fill:#96A6B9;" points="261.122,395.592 285.893,370.983 285.119,369.082 238.148,358.518 202.281,383.552 		"/>
		<polygon style="fill:#A5B7CC;" points="236.106,366.179 271.405,375.958 256.268,390.322 220.72,381.612 		"/>
		<polygon style="fill:#332737;" points="189.857,381.009 261.122,395.592 255.67,344.289 184.406,329.706 		"/>
		<polygon style="fill:#FFFFFF;" points="187.814,380.598 259.078,395.18 253.627,343.877 182.362,329.295 		"/>
		<polygon style="fill:#332737;" points="285.893,370.983 285.119,369.082 260.827,392.817 261.122,395.592 		"/>
		<polygon style="fill:#96A6B9;" points="214.085,366.817 225.054,369.085 223.839,357.658 212.871,355.39 		"/>
	</g>
	<g>
		<g>
			<path style="fill:#A3A878;" d="M364.328,318.936c0.387-1.753,1.37-3.586,3.093-4.088c1.723-0.502,3.646,1.831,3.523,3.622
				c-0.426,6.228,5.543,11.154,11.541,12.887c5.997,1.733,12.457,1.454,18.392,3.39c2.319,0.756,3.131,5.942,4.049,7.521
				c0.436-11.473-2.655-26.075-12.2-30.848c-3.855-1.928-15.318-0.996-18.718-3.645c-7.926-6.174-9.396-17.469-9.345-27.516
				c0.012-2.272,0.431-5.076,2.575-5.828c6.754,5.101,4.113,16.53,9.594,22.978c2.801,3.295,7.187,4.647,11.047,6.596
				c9.253,4.671,15.803,12.958,18.011,23.085c0.072-6.881,0.144-13.761,0.216-20.642c0.045-4.288,0.051-8.759-1.841-12.608
				c-3.089-6.287-10.358-9.303-14.787-14.729c-4.384-5.371-5.628-12.767-4.867-19.658c0.761-6.891,3.324-13.436,5.862-19.888
				c0.749-1.904,1.679-3.998,3.573-4.771c1.894-0.774,3.018,1.089,2.569,3.085c-2.805,12.454-0.764,25.934,5.6,37.001
				c2.542,4.419,5.797,8.601,6.84,13.591c1.065,5.101-0.327,10.344-1.053,15.504c-1.101,7.828-1.424,14.887,0.545,22.543
				c1.162-3.784,2.324-7.569,3.487-11.353c2.063-6.717,4.143-13.532,4.371-20.556c0.159-4.889-0.586-9.764-0.63-14.655
				c-0.043-4.891,0.696-9.994,3.484-14.013c0.392-0.565,0.915-1.154,1.602-1.167c1.101-0.021,1.612,1.336,1.81,2.419
				c1.141,6.235,2.283,12.469,3.424,18.704c0.455,2.486,0.912,4.988,0.905,7.515c-0.012,4.521-1.562,9.024-4.335,12.594
				c-1.951,2.512-4.549,4.465-6.515,6.966c-5.652,7.193-5.126,13.419-5.269,14.338c1.618-2.065,2.998-5.968,6.997-6.35
				c9.118-0.871,10.197-1.364,13.183-3.235c3.802-2.382,24.065-11.996,27.073-9.73c2.428,3.176-8.198,14.708-20.667,15.87
				c-7.419,0.691-16.517-4.709-21.945,0.395c-7.256,6.823-7.444,16.009-7.11,23.908c0.197,4.654,0.995,10.243,1.192,14.896h-4.996
				c-0.305-3.543-1.331-22.62-3.459-25.469c-4.212-5.638-19.302,1.817-23.313,1.769
				C365.714,339.219,363.033,324.808,364.328,318.936z"/>
			<path style="fill:#FFFFFF;" d="M405.151,402.435L405.151,402.435c11.58,0,20.967-9.387,20.967-20.967v-25.507h-41.935v25.507
				C384.184,393.048,393.571,402.435,405.151,402.435z"/>
		</g>
		<polyline style="fill:none;stroke:#332737;stroke-linecap:round;stroke-linejoin:round;stroke-miterlimit:10;" points="
			369.184,464.001 384.184,381.468 426.119,381.468 441.119,464.001 		"/>
		
			<line style="fill:none;stroke:#332737;stroke-linecap:round;stroke-linejoin:round;stroke-miterlimit:10;" x1="382.841" y1="464.001" x2="397.841" y2="381.468"/>
		<path style="fill:none;stroke:#332737;stroke-linecap:round;stroke-linejoin:round;stroke-miterlimit:10;" d="M384.184,381.468"/>
	</g>
</g>
</svg>
